<svg width="26" height="16" fill="none" xmlns="http://www.w3.org/2000/svg"><path d="M25.342 1.35c.176-.587 0-1.017-.834-1.017h-2.764c-.704 0-1.025.372-1.201.78 0 0-1.406 3.427-3.397 5.65-.643.646-.936.85-1.287.85-.175 0-.43-.204-.43-.79V1.349c0-.703-.202-1.016-.788-1.016h-4.343c-.439 0-.704.326-.704.636 0 .665.996.819 1.098 2.694v4.068c0 .891-.16 1.054-.513 1.054-.936 0-3.215-3.44-4.567-7.376C5.348.644 5.082.335 4.377.335H1.614c-.79 0-.947.372-.947.78 0 .733.936 4.363 4.361 9.163 2.284 3.278 5.499 5.056 8.428 5.056 1.755 0 1.972-.395 1.972-1.075V11.78c0-.79.168-.948.724-.948.408 0 1.111.207 2.75 1.786 1.874 1.873 2.184 2.713 3.236 2.713h2.763c.789 0 1.183-.394.956-1.173-.248-.775-1.143-1.903-2.33-3.238-.645-.761-1.61-1.58-1.903-1.99-.41-.528-.291-.761 0-1.23.001.001 3.367-4.74 3.718-6.352z" fill="#fff"/></svg>